<svg width="145" height="38" viewBox="0 0 145 38" fill="none" xmlns="http://www.w3.org/2000/svg">
<g filter="url(#filter0_dd_2617_6908)">
<g clip-path="url(#clip0_2617_6908)">
<rect x="3" y="2" width="32" height="32" rx="8" fill="white"/>
<rect x="3" y="2" width="32" height="32" rx="8" fill="url(#paint0_linear_2617_6908)"/>
<path fill-rule="evenodd" clip-rule="evenodd" d="M19 4.03884C11.2895 4.03884 5.03885 10.2895 5.03885 18C5.03885 25.7105 11.2895 31.9612 19 31.9612C26.7106 31.9612 32.9612 25.7105 32.9612 18C32.9612 10.2895 26.7106 4.03884 19 4.03884ZM4.96118 18C4.96118 10.2466 11.2466 3.96117 19 3.96117C26.7535 3.96117 33.0389 10.2466 33.0389 18C33.0389 25.7534 26.7535 32.0388 19 32.0388C11.2466 32.0388 4.96118 25.7534 4.96118 18Z" fill="#D0D5DD"/>
<path fill-rule="evenodd" clip-rule="evenodd" d="M19 14.0779C16.8338 14.0779 15.0777 15.834 15.0777 18.0002C15.0777 20.1665 16.8338 21.9226 19 21.9226C21.1662 21.9226 22.9223 20.1665 22.9223 18.0002C22.9223 15.834 21.1662 14.0779 19 14.0779ZM15 18.0002C15 15.7911 16.7909 14.0002 19 14.0002C21.2091 14.0002 23 15.7911 23 18.0002C23 20.2094 21.2091 22.0002 19 22.0002C16.7909 22.0002 15 20.2094 15 18.0002Z" fill="#D0D5DD"/>
<path fill-rule="evenodd" clip-rule="evenodd" d="M19 15.3201C17.52 15.3201 16.3203 16.5198 16.3203 17.9997C16.3203 19.4796 17.52 20.6793 19 20.6793C20.4799 20.6793 21.6796 19.4796 21.6796 17.9997C21.6796 16.5198 20.4799 15.3201 19 15.3201ZM16.2427 17.9997C16.2427 16.4769 17.4772 15.2424 19 15.2424C20.5228 15.2424 21.7572 16.4769 21.7572 17.9997C21.7572 19.5225 20.5228 20.757 19 20.757C17.4772 20.757 16.2427 19.5225 16.2427 17.9997Z" fill="#D0D5DD"/>
<path d="M18.9612 2H19.0389V34H18.9612V2Z" fill="#D0D5DD"/>
<path d="M35 17.9609L35 18.0386L3 18.0386L3 17.9609L35 17.9609Z" fill="#D0D5DD"/>
<path d="M29.6019 2H29.6796V34H29.6019V2Z" fill="#D0D5DD"/>
<path d="M13.6407 2H13.7184V34H13.6407V2Z" fill="#D0D5DD"/>
<path d="M24.2815 2H24.3592V34H24.2815V2Z" fill="#D0D5DD"/>
<path d="M8.32031 2H8.39798V34H8.32031V2Z" fill="#D0D5DD"/>
<path d="M35 28.6016L35 28.6792L3 28.6792L3 28.6016L35 28.6016Z" fill="#D0D5DD"/>
<path d="M35 12.6406L35 12.7183L3 12.7183L3 12.6406L35 12.6406Z" fill="#D0D5DD"/>
<path d="M35 23.2812L35 23.3589L3 23.3589L3 23.2812L35 23.2812Z" fill="#D0D5DD"/>
<path d="M35 7.32031L35 7.39798L3 7.39798L3 7.32031L35 7.32031Z" fill="#D0D5DD"/>
<g filter="url(#filter1_dd_2617_6908)">
<circle cx="19" cy="18" r="8" fill="url(#paint1_linear_2617_6908)"/>
</g>
<g filter="url(#filter2_b_2617_6908)">
<path d="M3 18H35V21.2C35 25.6804 35 27.9206 34.1281 29.6319C33.3611 31.1372 32.1372 32.3611 30.6319 33.1281C28.9206 34 26.6804 34 22.2 34H15.8C11.3196 34 9.07937 34 7.36808 33.1281C5.86278 32.3611 4.63893 31.1372 3.87195 29.6319C3 27.9206 3 25.6804 3 21.2V18Z" fill="white" fill-opacity="0.2"/>
</g>
</g>
<rect x="3.1" y="2.1" width="31.8" height="31.8" rx="7.9" stroke="#D0D5DD" stroke-width="0.2"/>
</g>
<path d="M54.0038 10.4545H56.6387V19.9574C56.6387 20.999 56.3925 21.9152 55.9001 22.7059C55.4124 23.4967 54.7258 24.1146 53.8404 24.5596C52.955 25 51.9204 25.2202 50.7367 25.2202C49.5483 25.2202 48.5113 25 47.6259 24.5596C46.7405 24.1146 46.0539 23.4967 45.5663 22.7059C45.0786 21.9152 44.8347 20.999 44.8347 19.9574V10.4545H47.4697V19.7372C47.4697 20.3433 47.6022 20.883 47.8674 21.3565C48.1373 21.83 48.5161 22.2017 49.0038 22.4716C49.4914 22.7367 50.0691 22.8693 50.7367 22.8693C51.4043 22.8693 51.982 22.7367 52.4697 22.4716C52.9621 22.2017 53.3409 21.83 53.606 21.3565C53.8712 20.883 54.0038 20.3433 54.0038 19.7372V10.4545Z" fill="#101828"/>
<path d="M61.9601 18.6079V25H59.389V14.0909H61.8464V15.9446H61.9743C62.2252 15.3338 62.6253 14.8485 63.1746 14.4886C63.7285 14.1288 64.4127 13.9488 65.2271 13.9488C65.98 13.9488 66.6357 14.1098 67.1944 14.4318C67.7579 14.7538 68.1935 15.2202 68.5013 15.8309C68.8138 16.4417 68.9676 17.1827 68.9629 18.054V25H66.3919V18.4517C66.3919 17.7225 66.2025 17.152 65.8237 16.74C65.4497 16.3281 64.9312 16.1221 64.2683 16.1221C63.8185 16.1221 63.4184 16.2216 63.068 16.4204C62.7224 16.6146 62.4501 16.8963 62.2513 17.2656C62.0571 17.6349 61.9601 18.0824 61.9601 18.6079Z" fill="#101828"/>
<path d="M77.024 14.0909V16.0795H70.7527V14.0909H77.024ZM72.301 11.4773H74.872V21.7187C74.872 22.0644 74.9241 22.3295 75.0283 22.5142C75.1372 22.6941 75.2792 22.8172 75.4544 22.8835C75.6296 22.9498 75.8237 22.9829 76.0368 22.9829C76.1978 22.9829 76.3445 22.9711 76.4771 22.9474C76.6144 22.9238 76.7186 22.9024 76.7896 22.8835L77.2229 24.8934C77.0855 24.9408 76.889 24.9929 76.6334 25.0497C76.3824 25.1065 76.0747 25.1397 75.7101 25.1491C75.0661 25.1681 74.4861 25.071 73.97 24.8579C73.4539 24.6401 73.0444 24.304 72.7413 23.8494C72.443 23.3949 72.2962 22.8267 72.301 22.1449V11.4773Z" fill="#101828"/>
<path d="M79.1742 25V14.0909H81.7452V25H79.1742ZM80.4668 12.5426C80.0596 12.5426 79.7092 12.4077 79.4157 12.1378C79.1221 11.8631 78.9753 11.5341 78.9753 11.1506C78.9753 10.7623 79.1221 10.4332 79.4157 10.1633C79.7092 9.88871 80.0596 9.7514 80.4668 9.7514C80.8787 9.7514 81.2291 9.88871 81.518 10.1633C81.8115 10.4332 81.9583 10.7623 81.9583 11.1506C81.9583 11.5341 81.8115 11.8631 81.518 12.1378C81.2291 12.4077 80.8787 12.5426 80.4668 12.5426Z" fill="#101828"/>
<path d="M89.8365 14.0909V16.0795H83.5652V14.0909H89.8365ZM85.1135 11.4773H87.6845V21.7187C87.6845 22.0644 87.7366 22.3295 87.8408 22.5142C87.9497 22.6941 88.0917 22.8172 88.2669 22.8835C88.4421 22.9498 88.6362 22.9829 88.8493 22.9829C89.0103 22.9829 89.157 22.9711 89.2896 22.9474C89.4269 22.9238 89.5311 22.9024 89.6021 22.8835L90.0354 24.8934C89.898 24.9408 89.7015 24.9929 89.4459 25.0497C89.1949 25.1065 88.8872 25.1397 88.5226 25.1491C87.8786 25.1681 87.2986 25.071 86.7825 24.8579C86.2664 24.6401 85.8569 24.304 85.5538 23.8494C85.2555 23.3949 85.1087 22.8267 85.1135 22.1449V11.4773Z" fill="#101828"/>
<path d="M94.7921 10.4545V25H92.2211V10.4545H94.7921Z" fill="#101828"/>
<path d="M102.265 25.2131C101.172 25.2131 100.227 24.9858 99.4317 24.5312C98.6409 24.072 98.0325 23.4233 97.6064 22.5852C97.1802 21.7424 96.9672 20.7505 96.9672 19.6094C96.9672 18.4872 97.1802 17.5024 97.6064 16.6548C98.0373 15.8025 98.6386 15.1397 99.4104 14.6662C100.182 14.188 101.089 13.9488 102.131 13.9488C102.803 13.9488 103.437 14.0577 104.034 14.2756C104.635 14.4886 105.166 14.8201 105.625 15.2699C106.089 15.7197 106.453 16.2926 106.719 16.9886C106.984 17.6799 107.116 18.5038 107.116 19.4602V20.2486H98.1746V18.5156H104.652C104.647 18.0232 104.541 17.5852 104.332 17.2017C104.124 16.8134 103.833 16.508 103.459 16.2855C103.089 16.063 102.658 15.9517 102.166 15.9517C101.64 15.9517 101.179 16.0795 100.781 16.3352C100.383 16.5862 100.073 16.9176 99.8507 17.3295C99.6329 17.7367 99.5216 18.1842 99.5169 18.6719V20.1846C99.5169 20.8191 99.6329 21.3636 99.8649 21.8182C100.097 22.268 100.421 22.6136 100.838 22.8551C101.255 23.0918 101.742 23.2102 102.301 23.2102C102.675 23.2102 103.014 23.1581 103.317 23.054C103.62 22.9451 103.882 22.7864 104.105 22.5781C104.327 22.3698 104.496 22.1117 104.609 21.804L107.01 22.0738C106.858 22.7083 106.569 23.2623 106.143 23.7358C105.722 24.2045 105.182 24.5691 104.524 24.8295C103.866 25.0852 103.113 25.2131 102.265 25.2131Z" fill="#101828"/>
<path d="M113.34 25.1917C112.483 25.1917 111.716 24.9716 111.039 24.5312C110.361 24.0909 109.826 23.4517 109.433 22.6136C109.04 21.7756 108.844 20.7576 108.844 19.5596C108.844 18.3475 109.043 17.3248 109.441 16.4915C109.843 15.6534 110.385 15.0213 111.067 14.5952C111.749 14.1643 112.509 13.9488 113.347 13.9488C113.986 13.9488 114.512 14.0577 114.923 14.2756C115.335 14.4886 115.662 14.7467 115.904 15.0497C116.145 15.348 116.332 15.6297 116.465 15.8949H116.571V10.4545H119.149V25H116.621V23.2812H116.465C116.332 23.5464 116.14 23.8281 115.889 24.1264C115.638 24.42 115.307 24.6709 114.895 24.8792C114.483 25.0876 113.965 25.1917 113.34 25.1917ZM114.057 23.0824C114.602 23.0824 115.066 22.9356 115.449 22.642C115.833 22.3437 116.124 21.9294 116.323 21.3991C116.521 20.8688 116.621 20.2509 116.621 19.5454C116.621 18.8399 116.521 18.2268 116.323 17.7059C116.129 17.1851 115.84 16.7803 115.456 16.4915C115.077 16.2026 114.611 16.0582 114.057 16.0582C113.484 16.0582 113.006 16.2074 112.622 16.5057C112.239 16.804 111.95 17.2159 111.756 17.7415C111.562 18.267 111.465 18.8684 111.465 19.5454C111.465 20.2273 111.562 20.8357 111.756 21.3707C111.955 21.901 112.246 22.3201 112.629 22.6278C113.018 22.9309 113.494 23.0824 114.057 23.0824Z" fill="#101828"/>
<path d="M136.133 10.4545H138.768V19.9574C138.768 20.999 138.521 21.9152 138.029 22.7059C137.541 23.4967 136.855 24.1146 135.969 24.5596C135.084 25 134.049 25.2202 132.866 25.2202C131.677 25.2202 130.64 25 129.755 24.5596C128.869 24.1146 128.183 23.4967 127.695 22.7059C127.207 21.9152 126.964 20.999 126.964 19.9574V10.4545H129.599V19.7372C129.599 20.3433 129.731 20.883 129.996 21.3565C130.266 21.83 130.645 22.2017 131.133 22.4716C131.62 22.7367 132.198 22.8693 132.866 22.8693C133.533 22.8693 134.111 22.7367 134.599 22.4716C135.091 22.2017 135.47 21.83 135.735 21.3565C136 20.883 136.133 20.3433 136.133 19.7372V10.4545Z" fill="#101828"/>
<path d="M144.267 10.4545V25H141.632V10.4545H144.267Z" fill="#101828"/>
<defs>
<filter id="filter0_dd_2617_6908" x="0" y="0" width="38" height="38" filterUnits="userSpaceOnUse" color-interpolation-filters="sRGB">
<feFlood flood-opacity="0" result="BackgroundImageFix"/>
<feColorMatrix in="SourceAlpha" type="matrix" values="0 0 0 0 0 0 0 0 0 0 0 0 0 0 0 0 0 0 127 0" result="hardAlpha"/>
<feOffset dy="1"/>
<feGaussianBlur stdDeviation="1"/>
<feColorMatrix type="matrix" values="0 0 0 0 0.0627451 0 0 0 0 0.0941176 0 0 0 0 0.156863 0 0 0 0.06 0"/>
<feBlend mode="normal" in2="BackgroundImageFix" result="effect1_dropShadow_2617_6908"/>
<feColorMatrix in="SourceAlpha" type="matrix" values="0 0 0 0 0 0 0 0 0 0 0 0 0 0 0 0 0 0 127 0" result="hardAlpha"/>
<feOffset dy="1"/>
<feGaussianBlur stdDeviation="1.5"/>
<feColorMatrix type="matrix" values="0 0 0 0 0.0627451 0 0 0 0 0.0941176 0 0 0 0 0.156863 0 0 0 0.1 0"/>
<feBlend mode="normal" in2="effect1_dropShadow_2617_6908" result="effect2_dropShadow_2617_6908"/>
<feBlend mode="normal" in="SourceGraphic" in2="effect2_dropShadow_2617_6908" result="shape"/>
</filter>
<filter id="filter1_dd_2617_6908" x="8" y="8" width="22" height="22" filterUnits="userSpaceOnUse" color-interpolation-filters="sRGB">
<feFlood flood-opacity="0" result="BackgroundImageFix"/>
<feColorMatrix in="SourceAlpha" type="matrix" values="0 0 0 0 0 0 0 0 0 0 0 0 0 0 0 0 0 0 127 0" result="hardAlpha"/>
<feOffset dy="1"/>
<feGaussianBlur stdDeviation="1"/>
<feColorMatrix type="matrix" values="0 0 0 0 0.0627451 0 0 0 0 0.0941176 0 0 0 0 0.156863 0 0 0 0.06 0"/>
<feBlend mode="normal" in2="BackgroundImageFix" result="effect1_dropShadow_2617_6908"/>
<feColorMatrix in="SourceAlpha" type="matrix" values="0 0 0 0 0 0 0 0 0 0 0 0 0 0 0 0 0 0 127 0" result="hardAlpha"/>
<feOffset dy="1"/>
<feGaussianBlur stdDeviation="1.5"/>
<feColorMatrix type="matrix" values="0 0 0 0 0.0627451 0 0 0 0 0.0941176 0 0 0 0 0.156863 0 0 0 0.1 0"/>
<feBlend mode="normal" in2="effect1_dropShadow_2617_6908" result="effect2_dropShadow_2617_6908"/>
<feBlend mode="normal" in="SourceGraphic" in2="effect2_dropShadow_2617_6908" result="shape"/>
</filter>
<filter id="filter2_b_2617_6908" x="-2" y="13" width="42" height="26" filterUnits="userSpaceOnUse" color-interpolation-filters="sRGB">
<feFlood flood-opacity="0" result="BackgroundImageFix"/>
<feGaussianBlur in="BackgroundImageFix" stdDeviation="2.5"/>
<feComposite in2="SourceAlpha" operator="in" result="effect1_backgroundBlur_2617_6908"/>
<feBlend mode="normal" in="SourceGraphic" in2="effect1_backgroundBlur_2617_6908" result="shape"/>
</filter>
<linearGradient id="paint0_linear_2617_6908" x1="19" y1="2" x2="19" y2="34" gradientUnits="userSpaceOnUse">
<stop stop-color="white"/>
<stop offset="1" stop-color="#D0D5DD"/>
</linearGradient>
<linearGradient id="paint1_linear_2617_6908" x1="15" y1="26" x2="23" y2="10" gradientUnits="userSpaceOnUse">
<stop stop-color="#53389E"/>
<stop offset="1" stop-color="#6941C6"/>
</linearGradient>
<clipPath id="clip0_2617_6908">
<rect x="3" y="2" width="32" height="32" rx="8" fill="white"/>
</clipPath>
</defs>
</svg>
