<svg width="20" height="20" viewBox="0 0 20 20" fill="none" xmlns="http://www.w3.org/2000/svg">
<path d="M1.66666 5.83331L8.47076 10.5962C9.02173 10.9819 9.29722 11.1747 9.59688 11.2494C9.86157 11.3154 10.1384 11.3154 10.4031 11.2494C10.7028 11.1747 10.9782 10.9819 11.5292 10.5962L18.3333 5.83331M5.66666 16.6666H14.3333C15.7335 16.6666 16.4335 16.6666 16.9683 16.3942C17.4387 16.1545 17.8212 15.772 18.0608 15.3016C18.3333 14.7668 18.3333 14.0668 18.3333 12.6666V7.33331C18.3333 5.93318 18.3333 5.23312 18.0608 4.69834C17.8212 4.22793 17.4387 3.84548 16.9683 3.6058C16.4335 3.33331 15.7335 3.33331 14.3333 3.33331H5.66666C4.26653 3.33331 3.56646 3.33331 3.03168 3.6058C2.56128 3.84548 2.17882 4.22793 1.93914 4.69834C1.66666 5.23312 1.66666 5.93318 1.66666 7.33331V12.6666C1.66666 14.0668 1.66666 14.7668 1.93914 15.3016C2.17882 15.772 2.56128 16.1545 3.03168 16.3942C3.56646 16.6666 4.26653 16.6666 5.66666 16.6666Z" stroke="#667085" stroke-width="1.66667" stroke-linecap="round" stroke-linejoin="round"/>
</svg>
